<?xml version="1.0" encoding="UTF-8"?>
<svg xmlns="http://www.w3.org/2000/svg" xmlns:xlink="http://www.w3.org/1999/xlink" width="76pt" height="58pt" viewBox="0 0 76 58" version="1.1">
<g id="surface1">
<path style=" stroke:none;fill-rule:evenodd;fill:rgb(0%,16.899109%,36.099243%);fill-opacity:1;" d="M 48.621094 13.28125 L 50.054688 17.023438 L 47.054688 17.015625 Z M 44.507813 20.398438 L 44.507813 10.347656 L 45.917969 10.34375 L 45.914063 10.035156 L 41.707031 10.023438 C 41.582031 10.171875 39.136719 16.058594 38.71875 17.019531 C 38.628906 17.222656 38.585938 17.398438 38.472656 17.507813 L 35.425781 10.03125 L 30.917969 10.027344 L 30.914063 10.34375 L 32.324219 10.347656 C 32.378906 11.25 32.328125 12.3125 32.328125 13.230469 C 32.328125 14.207031 32.328125 15.179688 32.328125 16.15625 C 32.328125 17.085938 32.367188 18.109375 32.308594 19.027344 C 32.210938 20.5625 31.839844 20.335938 30.824219 20.464844 L 30.824219 20.746094 L 34.316406 20.757813 L 34.316406 20.472656 C 33.90625 20.503906 33.390625 20.488281 33.113281 20.269531 C 32.839844 20.050781 32.800781 19.601563 32.769531 19.160156 C 32.703125 18.253906 32.742188 17.230469 32.742188 16.304688 C 32.742188 14.382813 32.710938 12.433594 32.746094 10.515625 C 32.851563 10.65625 34.734375 15.335938 34.855469 15.636719 C 35.207031 16.496094 35.546875 17.34375 35.90625 18.21875 C 36.085938 18.652344 36.257813 19.070313 36.433594 19.507813 L 36.820313 20.453125 C 36.894531 20.636719 36.894531 20.730469 37.003906 20.753906 L 37.523438 20.757813 C 37.621094 20.730469 37.757813 20.316406 37.824219 20.164063 C 37.921875 19.9375 38 19.761719 38.089844 19.542969 C 38.417969 18.75 41.714844 10.910156 41.847656 10.738281 L 41.847656 20.445313 L 40.4375 20.449219 L 40.4375 20.757813 L 47.28125 20.753906 L 47.28125 20.453125 C 46.171875 20.488281 45.695313 20.4375 46.105469 19.257813 L 46.878906 17.363281 C 47.261719 17.347656 50.019531 17.328125 50.195313 17.378906 L 51.425781 20.449219 L 50.054688 20.453125 L 50.050781 20.746094 L 56.574219 20.753906 L 56.574219 20.453125 C 56.035156 20.445313 54.871094 20.589844 55.199219 19.796875 C 55.394531 19.328125 56.613281 17.78125 56.988281 17.285156 L 57.9375 16.074219 C 58.144531 16.328125 59.140625 17.863281 59.394531 18.253906 C 59.605469 18.578125 60.765625 20.269531 60.832031 20.453125 L 59.433594 20.453125 L 59.433594 20.734375 C 59.667969 20.789063 65.339844 20.796875 65.667969 20.742188 L 65.667969 20.464844 L 64.160156 20.34375 L 59.710938 13.859375 L 61.34375 11.601563 C 61.816406 11.003906 62.242188 10.507813 63.039063 10.367188 C 63.363281 10.308594 63.722656 10.375 63.996094 10.328125 L 63.992188 10.035156 L 60.101563 10.023438 C 60.078125 10.152344 60.070313 10.234375 60.113281 10.347656 C 61.027344 10.394531 61.695313 10.296875 60.621094 11.726563 L 59.351563 13.417969 L 59.207031 13.253906 C 59.15625 13.179688 59.128906 13.136719 59.074219 13.058594 C 58.796875 12.664063 57.308594 10.539063 57.230469 10.320313 L 58.4375 10.34375 L 58.433594 10.03125 L 52.695313 10.023438 L 52.679688 10.339844 L 54 10.347656 C 54.273438 10.792969 54.605469 11.238281 54.902344 11.667969 L 56.703125 14.316406 C 56.878906 14.589844 57.523438 15.472656 57.609375 15.675781 C 57.4375 15.972656 55.523438 18.375 55.269531 18.679688 C 55.132813 18.847656 55.007813 18.988281 54.867188 19.164063 C 54.746094 19.316406 54.542969 19.527344 54.460938 19.675781 C 54.417969 19.640625 54.441406 19.667969 54.402344 19.617188 L 53.285156 17.214844 C 52.910156 16.378906 52.5 15.5625 52.136719 14.730469 C 51.601563 13.511719 50.964844 12.234375 50.410156 11.011719 C 50.308594 10.792969 49.929688 9.910156 49.824219 9.785156 L 49.484375 9.785156 C 49.234375 10.53125 47.554688 14.644531 47.261719 15.339844 C 46.878906 16.238281 46.519531 17.199219 46.152344 18.117188 C 45.746094 19.132813 45.5 20.257813 44.507813 20.398438 "/>
<path style=" stroke:none;fill-rule:evenodd;fill:rgb(95.698547%,47.499084%,12.5%);fill-opacity:1;" d="M 21.820313 20.414063 C 21.941406 20.835938 22.207031 21.175781 22.324219 21.90625 C 22.621094 23.8125 21.492188 25.226563 19.515625 25.089844 C 19.308594 25.078125 18.828125 25 18.722656 24.882813 C 18.65625 24.808594 18.480469 24.285156 18.441406 24.160156 C 17.84375 22.382813 18.105469 20.785156 19.214844 19.414063 C 20.222656 18.167969 21.507813 17.339844 21.84375 15.964844 C 21.980469 15.386719 22.011719 14.726563 21.871094 14.136719 C 21.601563 13.011719 20.878906 12.386719 20.199219 11.769531 C 19.832031 11.433594 19.464844 11.164063 19.089844 10.839844 C 18.722656 10.527344 18.34375 10.222656 18.003906 9.910156 C 18.046875 10.023438 18.152344 10.183594 18.214844 10.304688 C 18.46875 10.8125 18.574219 11.257813 18.636719 11.84375 C 18.789063 13.324219 18.179688 14.714844 17.476563 15.898438 C 16.453125 17.617188 15.105469 19.136719 15.375 21.675781 C 15.535156 23.179688 16.390625 23.96875 17.433594 24.871094 C 18.296875 25.621094 19.363281 26.683594 20.414063 27.152344 C 21.957031 27.84375 23.351563 27.542969 24.34375 26.582031 C 25.390625 25.566406 25.609375 24.226563 24.613281 22.878906 C 24.4375 22.636719 24.171875 22.433594 23.949219 22.242188 C 23.601563 21.941406 21.960938 20.472656 21.820313 20.414063 "/>
<path style=" stroke:none;fill-rule:evenodd;fill:rgb(0%,16.899109%,36.099243%);fill-opacity:1;" d="M 10.167969 31.160156 C 10.21875 31.273438 10.484375 31.503906 10.585938 31.609375 C 10.738281 31.773438 10.859375 31.902344 11.023438 32.058594 C 11.308594 32.339844 11.609375 32.636719 11.929688 32.894531 C 12.542969 33.382813 13.195313 33.886719 14.082031 34.226563 C 16.019531 34.960938 18.144531 34.519531 19.84375 33.75 C 20.664063 33.378906 21.378906 32.988281 22.167969 32.59375 C 24.582031 31.390625 26.367188 30.769531 29.167969 31.511719 C 29.648438 31.640625 30.070313 31.8125 30.511719 31.929688 C 30.203125 31.644531 29.90625 31.355469 29.597656 31.082031 C 27.910156 29.597656 26.546875 27.761719 23.777344 27.917969 C 22.679688 27.980469 21.839844 28.304688 21.015625 28.734375 C 20.152344 29.183594 19.632813 29.726563 18.941406 30.257813 C 16.738281 31.945313 14.371094 31.929688 11.695313 31.460938 C 11.179688 31.371094 10.664063 31.234375 10.167969 31.160156 "/>
<path style=" stroke:none;fill-rule:evenodd;fill:rgb(95.698547%,47.499084%,12.5%);fill-opacity:1;" d="M 56.101563 23.425781 L 57.355469 23.4375 L 57.371094 33.519531 L 56.09375 33.539063 L 56.089844 33.824219 L 65.683594 33.839844 L 65.6875 30.394531 L 65.398438 30.398438 C 65.28125 31.488281 65.445313 32.609375 63.867188 33.242188 C 63.265625 33.480469 62.714844 33.527344 61.972656 33.53125 C 61.347656 33.535156 60.351563 33.59375 59.765625 33.519531 L 59.761719 28.394531 C 60.566406 28.277344 61.492188 28.4375 61.9375 28.832031 C 62.441406 29.273438 62.632813 29.839844 62.6875 30.710938 L 62.972656 30.71875 L 62.980469 25.898438 L 62.65625 25.90625 C 62.605469 26.632813 62.59375 27.445313 62 27.742188 C 61.5 27.992188 60.449219 28.0625 59.777344 28.023438 L 59.769531 23.449219 C 60.398438 23.414063 61.121094 23.449219 61.753906 23.453125 C 62.863281 23.460938 63.863281 23.5625 64.535156 24.601563 C 64.859375 25.105469 64.886719 25.472656 64.976563 26.160156 L 65.269531 26.164063 L 65.230469 23.144531 C 65.050781 23.085938 56.96875 23.105469 56.109375 23.121094 Z M 46.535156 23.4375 L 47.792969 23.445313 C 47.855469 25.089844 47.800781 26.84375 47.800781 28.496094 L 47.765625 33.519531 L 46.53125 33.539063 L 46.53125 33.824219 L 51.589844 33.839844 L 51.59375 33.546875 L 50.242188 33.53125 L 50.234375 28.46875 C 50.808594 28.378906 52.1875 28.421875 52.710938 28.832031 C 53.125 29.15625 53.320313 29.769531 53.347656 30.308594 C 53.367188 30.667969 53.269531 30.730469 53.660156 30.703125 L 53.679688 25.898438 L 53.378906 25.902344 C 53.308594 26.722656 53.261719 27.535156 52.640625 27.832031 C 52.191406 28.042969 50.851563 28.191406 50.238281 28.117188 L 50.234375 23.460938 C 50.703125 23.390625 51.675781 23.453125 52.195313 23.453125 C 52.894531 23.457031 53.351563 23.484375 53.914063 23.738281 C 54.417969 23.96875 54.761719 24.261719 55.039063 24.613281 C 55.394531 25.0625 55.457031 25.441406 55.527344 26.121094 L 55.8125 26.117188 L 55.789063 23.128906 L 46.53125 23.117188 Z M 31.167969 23.429688 L 32.421875 23.4375 L 32.4375 33.519531 L 31.160156 33.539063 L 31.15625 33.824219 L 40.738281 33.839844 L 40.738281 30.183594 C 40.265625 30.15625 40.472656 30.167969 40.367188 30.933594 C 40.234375 31.890625 39.925781 32.628906 39.050781 33.097656 C 38.035156 33.636719 36.191406 33.578125 34.851563 33.527344 L 34.847656 23.449219 L 36.171875 23.441406 L 36.199219 23.125 L 31.171875 23.117188 Z M 41.195313 23.425781 C 41.734375 23.476563 42.425781 23.269531 42.46875 23.570313 L 42.472656 30.976563 C 42.472656 31.726563 42.535156 32.808594 42.464844 33.519531 L 41.195313 33.539063 L 41.195313 33.824219 L 46.144531 33.835938 L 46.144531 33.546875 L 44.871094 33.53125 L 44.867188 23.445313 L 46.128906 23.429688 L 46.128906 23.121094 L 41.199219 23.117188 L 41.195313 23.425781 "/>
<path style=" stroke:none;fill-rule:evenodd;fill:rgb(13.699341%,12.199402%,12.5%);fill-opacity:1;" d="M 10.132813 41.351563 C 10.171875 41.445313 10.140625 41.445313 10.472656 41.441406 C 10.621094 41.4375 10.769531 41.4375 10.917969 41.4375 L 65.535156 41.445313 C 65.777344 41.414063 65.636719 41.480469 65.691406 41.351563 C 65.648438 41.28125 65.753906 41.277344 65.347656 41.285156 C 63.257813 41.316406 60.925781 41.285156 58.824219 41.285156 L 10.957031 41.285156 C 10.808594 41.285156 10.660156 41.285156 10.511719 41.285156 C 10.457031 41.285156 10.332031 41.277344 10.285156 41.28125 C 10.023438 41.304688 10.199219 41.300781 10.132813 41.351563 "/>
<path style=" stroke:none;fill-rule:evenodd;fill:rgb(13.699341%,12.199402%,12.5%);fill-opacity:1;" d="M 25.285156 44.382813 C 26.066406 44.386719 27.195313 44.253906 27.113281 45.242188 C 27.046875 46.039063 26.058594 46.039063 25.28125 45.992188 Z M 25.285156 46.480469 C 25.898438 46.492188 26.539063 46.507813 27.03125 46.234375 C 27.957031 45.726563 27.996094 44.265625 26.636719 43.96875 C 26.28125 43.890625 25.132813 43.863281 24.75 43.914063 L 24.753906 48.269531 L 25.28125 48.261719 L 25.285156 46.480469 "/>
<path style=" stroke:none;fill-rule:evenodd;fill:rgb(13.699341%,12.199402%,12.5%);fill-opacity:1;" d="M 40.238281 46.375 C 40.328125 45.933594 40.53125 45.574219 41.003906 45.53125 C 41.539063 45.480469 41.785156 45.882813 41.800781 46.390625 Z M 42.230469 47.765625 C 41.222656 48.007813 40.234375 48.03125 40.214844 46.824219 L 42.328125 46.824219 C 42.425781 46.121094 42.195313 45.324219 41.449219 45.132813 C 39.777344 44.695313 39.140625 47.113281 40.1875 48.019531 C 40.582031 48.359375 41.707031 48.5 42.230469 48.167969 L 42.230469 47.765625 "/>
<path style=" stroke:none;fill-rule:evenodd;fill:rgb(13.699341%,12.199402%,12.5%);fill-opacity:1;" d="M 63.589844 46.390625 C 63.636719 45.933594 63.921875 45.554688 64.382813 45.527344 C 64.914063 45.496094 65.105469 45.890625 65.152344 46.390625 Z M 65.570313 47.765625 C 64.550781 48.027344 63.601563 48.019531 63.558594 46.824219 L 65.671875 46.828125 C 65.796875 46.035156 65.445313 45.300781 64.789063 45.128906 C 63.128906 44.699219 62.484375 47.09375 63.53125 48.019531 C 63.914063 48.355469 65.039063 48.507813 65.574219 48.167969 L 65.570313 47.765625 "/>
<path style=" stroke:none;fill-rule:evenodd;fill:rgb(13.699341%,12.199402%,12.5%);fill-opacity:1;" d="M 30.289063 46.914063 C 30.292969 47.515625 30.378906 47.574219 29.898438 47.808594 C 29.550781 47.980469 29.148438 47.96875 28.949219 47.699219 C 28.679688 47.332031 28.785156 46.492188 30.289063 46.914063 Z M 28.589844 45.6875 C 29.316406 45.527344 30.3125 45.191406 30.289063 46.496094 C 29.785156 46.425781 29.402344 46.246094 28.867188 46.480469 C 28.050781 46.847656 28.148438 48.21875 29.15625 48.339844 C 29.84375 48.421875 30.054688 48.105469 30.320313 47.949219 L 30.375 48.273438 L 30.785156 48.273438 C 30.832031 47.886719 30.796875 47.28125 30.796875 46.871094 C 30.796875 46.460938 30.847656 45.941406 30.660156 45.617188 C 30.296875 44.992188 29.34375 45.011719 28.589844 45.265625 L 28.589844 45.6875 "/>
<path style=" stroke:none;fill-rule:evenodd;fill:rgb(13.699341%,12.199402%,12.5%);fill-opacity:1;" d="M 14.441406 46.984375 C 14.253906 45.175781 16.113281 45.070313 16.292969 46.464844 C 16.527344 48.261719 14.585938 48.363281 14.441406 46.984375 Z M 16.820313 47.019531 C 17.140625 44.707031 14.195313 44.414063 13.917969 46.390625 C 13.59375 48.742188 16.539063 49.046875 16.820313 47.019531 "/>
<path style=" stroke:none;fill-rule:evenodd;fill:rgb(13.699341%,12.199402%,12.5%);fill-opacity:1;" d="M 49.28125 47.058594 C 48.976563 45.285156 50.882813 45.007813 51.113281 46.394531 C 51.410156 48.171875 49.519531 48.421875 49.28125 47.058594 Z M 48.730469 46.910156 C 48.800781 47.800781 49.386719 48.4375 50.371094 48.34375 C 52.21875 48.171875 52.109375 44.882813 50.007813 45.097656 C 49.148438 45.191406 48.65625 45.941406 48.730469 46.910156 "/>
<path style=" stroke:none;fill-rule:evenodd;fill:rgb(13.699341%,12.199402%,12.5%);fill-opacity:1;" d="M 10.28125 43.90625 C 10.625 44.546875 11.023438 45.15625 11.394531 45.765625 C 11.585938 46.082031 11.855469 46.347656 11.855469 46.796875 C 11.851563 47.261719 11.828125 47.816406 11.859375 48.273438 L 12.382813 48.261719 C 12.40625 47.800781 12.390625 47.265625 12.382813 46.796875 C 12.382813 46.449219 12.425781 46.457031 12.566406 46.222656 C 12.84375 45.742188 13.828125 44.199219 13.957031 43.902344 L 13.402344 43.910156 L 12.4375 45.503906 C 12.335938 45.671875 12.238281 45.902344 12.097656 46.019531 C 11.828125 45.484375 10.984375 44.21875 10.855469 43.902344 L 10.28125 43.90625 "/>
<path style=" stroke:none;fill-rule:evenodd;fill:rgb(13.699341%,12.199402%,12.5%);fill-opacity:1;" d="M 36.839844 48.265625 C 36.878906 47.730469 36.847656 47.050781 36.847656 46.503906 C 36.84375 46.109375 36.839844 46.007813 37.058594 45.816406 C 37.183594 45.710938 37.40625 45.566406 37.632813 45.535156 C 38.742188 45.378906 38.277344 46.78125 38.386719 48.269531 L 38.882813 48.269531 C 38.929688 47.710938 38.957031 45.925781 38.742188 45.539063 C 38.574219 45.226563 38.230469 45.058594 37.746094 45.09375 C 37.222656 45.132813 37.082031 45.398438 36.824219 45.585938 L 36.734375 45.171875 L 36.339844 45.171875 L 36.347656 48.273438 L 36.839844 48.265625 "/>
<path style=" stroke:none;fill-rule:evenodd;fill:rgb(13.699341%,12.199402%,12.5%);fill-opacity:1;" d="M 17.609375 45.167969 C 17.597656 45.746094 17.554688 46.855469 17.628906 47.386719 C 17.71875 48.007813 18.195313 48.355469 18.886719 48.351563 C 19.554688 48.347656 20.046875 48.003906 20.136719 47.382813 C 20.210938 46.851563 20.167969 45.742188 20.152344 45.167969 L 19.652344 45.167969 C 19.636719 45.757813 19.65625 46.359375 19.652344 46.949219 C 19.648438 47.53125 19.488281 47.921875 18.886719 47.921875 C 18.257813 47.921875 18.113281 47.519531 18.113281 46.910156 C 18.113281 46.332031 18.117188 45.75 18.113281 45.167969 L 17.609375 45.167969 "/>
<path style=" stroke:none;fill-rule:evenodd;fill:rgb(13.699341%,12.199402%,12.5%);fill-opacity:1;" d="M 55.039063 39.316406 L 55.429688 39.316406 L 55.417969 36.703125 C 55.410156 36.710938 55.425781 36.710938 55.429688 36.726563 C 55.433594 36.738281 55.445313 36.742188 55.453125 36.746094 C 55.457031 36.753906 55.46875 36.761719 55.472656 36.769531 L 57.148438 39.175781 C 57.289063 39.375 57.351563 39.320313 57.636719 39.3125 L 57.636719 36.128906 L 57.246094 36.132813 L 57.261719 38.75 C 57.167969 38.664063 56.882813 38.199219 56.785156 38.058594 L 55.535156 36.269531 C 55.394531 36.066406 55.332031 36.125 55.042969 36.128906 L 55.039063 39.316406 "/>
<path style=" stroke:none;fill-rule:evenodd;fill:rgb(13.699341%,12.199402%,12.5%);fill-opacity:1;" d="M 34.667969 39.316406 L 35.050781 39.316406 L 35.042969 36.695313 L 36.773438 39.171875 C 36.917969 39.378906 36.960938 39.316406 37.261719 39.316406 L 37.265625 36.128906 L 36.875 36.128906 L 36.886719 38.742188 C 36.78125 38.640625 36.550781 38.25 36.441406 38.09375 L 35.066406 36.136719 L 34.667969 36.125 L 34.667969 39.316406 "/>
<path style=" stroke:none;fill-rule:evenodd;fill:rgb(13.699341%,12.199402%,12.5%);fill-opacity:1;" d="M 47.441406 45.167969 C 47.417969 44.117188 47.476563 43.84375 48.578125 43.933594 C 48.578125 43.429688 48.597656 43.523438 48.433594 43.484375 L 47.804688 43.488281 C 46.902344 43.652344 46.925781 44.492188 46.929688 45.167969 L 46.386719 45.179688 L 46.390625 45.601563 L 46.929688 45.609375 L 46.941406 48.273438 L 47.4375 48.261719 L 47.4375 45.605469 L 48.359375 45.59375 L 48.359375 45.171875 L 47.441406 45.167969 "/>
<path style=" stroke:none;fill-rule:evenodd;fill:rgb(13.699341%,12.199402%,12.5%);fill-opacity:1;" d="M 61.746094 45.167969 C 61.746094 44.796875 61.699219 44.347656 61.917969 44.109375 C 62.164063 43.835938 62.492188 43.933594 62.886719 43.929688 L 62.878906 43.519531 C 62.390625 43.386719 61.792969 43.503906 61.542969 43.773438 C 61.25 44.09375 61.25 44.621094 61.238281 45.167969 L 60.695313 45.1875 L 60.699219 45.597656 L 61.238281 45.605469 L 61.246094 48.273438 L 61.746094 48.269531 L 61.746094 45.605469 L 62.667969 45.597656 L 62.667969 45.171875 L 61.746094 45.167969 "/>
<path style=" stroke:none;fill-rule:evenodd;fill:rgb(13.699341%,12.199402%,12.5%);fill-opacity:1;" d="M 56.125 48.273438 L 58.78125 48.269531 L 58.785156 47.792969 L 56.648438 47.78125 L 56.648438 43.902344 L 56.117188 43.902344 L 56.125 48.273438 "/>
<path style=" stroke:none;fill-rule:evenodd;fill:rgb(13.699341%,12.199402%,12.5%);fill-opacity:1;" d="M 47.433594 36.476563 C 48.011719 36.476563 48.816406 36.394531 48.773438 37.085938 C 48.730469 37.707031 48.03125 37.648438 47.433594 37.644531 Z M 47.042969 39.316406 L 47.433594 39.308594 L 47.433594 37.996094 L 47.894531 37.996094 L 48.894531 39.308594 L 49.367188 39.3125 C 49.214844 39.082031 49.039063 38.878906 48.863281 38.644531 C 48.742188 38.480469 48.410156 38.09375 48.34375 37.941406 C 48.691406 37.867188 48.925781 37.742188 49.074219 37.492188 C 49.234375 37.226563 49.21875 36.773438 49.039063 36.539063 C 48.652344 36.027344 47.777344 36.117188 47.042969 36.128906 L 47.042969 39.316406 "/>
<path style=" stroke:none;fill-rule:evenodd;fill:rgb(13.699341%,12.199402%,12.5%);fill-opacity:1;" d="M 33.589844 45.601563 L 34.171875 45.621094 C 34.179688 46.121094 34.113281 47.332031 34.207031 47.746094 C 34.328125 48.292969 35.058594 48.511719 35.652344 48.265625 L 35.652344 47.878906 C 35.402344 47.859375 35.171875 47.980469 34.917969 47.84375 C 34.730469 47.742188 34.679688 47.558594 34.679688 47.28125 C 34.675781 46.726563 34.675781 46.171875 34.679688 45.605469 L 35.601563 45.605469 L 35.605469 45.171875 L 34.679688 45.15625 L 34.671875 44.320313 L 34.175781 44.320313 L 34.171875 45.164063 L 33.574219 45.167969 L 33.589844 45.601563 "/>
<path style=" stroke:none;fill-rule:evenodd;fill:rgb(13.699341%,12.199402%,12.5%);fill-opacity:1;" d="M 52.097656 36.652344 L 52.59375 38.007813 L 51.558594 38 Z M 50.625 39.316406 L 51.007813 39.316406 C 51.140625 39.15625 51.320313 38.578125 51.417969 38.355469 L 52.75 38.355469 C 52.839844 38.574219 53.027344 39.160156 53.15625 39.3125 L 53.546875 39.308594 C 53.363281 38.878906 52.363281 36.289063 52.230469 36.128906 L 51.933594 36.128906 C 51.820313 36.28125 50.71875 38.996094 50.625 39.316406 "/>
<path style=" stroke:none;fill-rule:evenodd;fill:rgb(13.699341%,12.199402%,12.5%);fill-opacity:1;" d="M 45.25 36.140625 L 44.863281 36.125 C 44.851563 36.746094 44.863281 37.363281 44.859375 37.980469 C 44.859375 38.632813 44.675781 39.027344 44.007813 39.027344 C 43.367188 39.027344 43.152344 38.632813 43.144531 38.019531 C 43.136719 37.394531 43.144531 36.761719 43.144531 36.136719 L 42.753906 36.128906 C 42.746094 36.777344 42.707031 37.710938 42.769531 38.320313 C 42.839844 39.019531 43.261719 39.375 44.003906 39.371094 C 44.730469 39.367188 45.152344 39.023438 45.234375 38.359375 C 45.304688 37.769531 45.257813 36.769531 45.25 36.140625 "/>
<path style=" stroke:none;fill-rule:evenodd;fill:rgb(13.699341%,12.199402%,12.5%);fill-opacity:1;" d="M 63.324219 39.300781 L 65.351563 39.316406 L 65.351563 38.96875 L 63.730469 38.964844 L 63.710938 37.859375 L 65.078125 37.855469 L 65.089844 37.507813 L 63.714844 37.503906 L 63.714844 36.476563 L 65.265625 36.476563 L 65.265625 36.136719 L 63.324219 36.132813 L 63.324219 39.300781 "/>
<path style=" stroke:none;fill-rule:evenodd;fill:rgb(13.699341%,12.199402%,12.5%);fill-opacity:1;" d="M 38.976563 38.84375 L 38.96875 39.195313 C 39.484375 39.417969 40.328125 39.464844 40.746094 39.132813 C 41.203125 38.769531 41.199219 38.011719 40.667969 37.722656 C 40.242188 37.492188 39.289063 37.5625 39.375 36.871094 C 39.414063 36.574219 39.667969 36.433594 40.003906 36.417969 C 40.425781 36.398438 40.589844 36.511719 40.9375 36.589844 L 40.941406 36.234375 C 40.375 36.085938 39.617188 35.910156 39.207031 36.367188 C 38.773438 36.855469 38.929688 37.515625 39.503906 37.742188 C 39.980469 37.929688 40.933594 37.933594 40.625 38.675781 C 40.414063 39.183594 39.472656 39.03125 38.976563 38.84375 "/>
<path style=" stroke:none;fill-rule:evenodd;fill:rgb(13.699341%,12.199402%,12.5%);fill-opacity:1;" d="M 61.671875 39.269531 L 61.675781 38.925781 C 59.511719 39.570313 59.328125 37.257813 60.253906 36.628906 C 60.714844 36.3125 61.101563 36.417969 61.648438 36.515625 L 61.652344 36.203125 C 61.175781 35.875 59.332031 35.976563 59.328125 37.757813 C 59.324219 39.109375 60.371094 39.609375 61.671875 39.269531 "/>
<path style=" stroke:none;fill-rule:evenodd;fill:rgb(13.699341%,12.199402%,12.5%);fill-opacity:1;" d="M 52.96875 48.269531 C 53.023438 47.714844 52.976563 46.898438 52.976563 46.316406 C 52.976563 46.054688 53.070313 45.914063 53.371094 45.753906 C 53.589844 45.636719 53.875 45.589844 54.171875 45.582031 L 54.171875 45.09375 C 53.886719 45.085938 53.632813 45.136719 53.425781 45.246094 C 53.09375 45.429688 53.101563 45.535156 52.960938 45.640625 L 52.863281 45.167969 L 52.46875 45.1875 L 52.472656 48.269531 L 52.96875 48.269531 "/>
<path style=" stroke:none;fill-rule:evenodd;fill:rgb(13.699341%,12.199402%,12.5%);fill-opacity:1;" d="M 43.699219 48.269531 C 43.742188 47.671875 43.699219 46.925781 43.703125 46.316406 C 43.703125 46.101563 43.703125 46.074219 43.828125 45.953125 C 44.125 45.660156 44.488281 45.605469 44.898438 45.578125 L 44.898438 45.09375 C 44.292969 45.082031 43.953125 45.292969 43.710938 45.644531 C 43.640625 45.542969 43.617188 45.328125 43.589844 45.171875 L 43.195313 45.175781 L 43.203125 48.273438 L 43.699219 48.269531 "/>
<path style=" stroke:none;fill-rule:evenodd;fill:rgb(13.699341%,12.199402%,12.5%);fill-opacity:1;" d="M 32.277344 48.261719 C 32.429688 46.214844 31.765625 45.78125 33.476563 45.574219 L 33.476563 45.097656 C 32.742188 45.039063 32.535156 45.410156 32.265625 45.648438 L 32.148438 45.171875 L 31.777344 45.167969 L 31.785156 48.273438 L 32.277344 48.261719 "/>
<path style=" stroke:none;fill-rule:evenodd;fill:rgb(13.699341%,12.199402%,12.5%);fill-opacity:1;" d="M 21.605469 48.257813 C 21.648438 47.652344 21.601563 46.933594 21.609375 46.316406 C 21.609375 45.96875 21.769531 45.882813 22.023438 45.75 C 22.300781 45.597656 22.480469 45.617188 22.804688 45.570313 L 22.804688 45.097656 C 22.058594 45.035156 21.863281 45.425781 21.59375 45.648438 L 21.476563 45.171875 L 21.101563 45.171875 L 21.113281 48.273438 L 21.605469 48.257813 "/>
<path style=" stroke:none;fill-rule:evenodd;fill:rgb(13.699341%,12.199402%,12.5%);fill-opacity:1;" d="M 59.574219 48.273438 L 60.074219 48.261719 L 60.070313 45.171875 L 59.566406 45.167969 L 59.574219 48.273438 "/>
<path style=" stroke:none;fill-rule:evenodd;fill:rgb(13.699341%,12.199402%,12.5%);fill-opacity:1;" d="M 32.46875 36.3125 L 32.46875 38.832031 L 32.472656 39.277344 L 32.46875 39.316406 L 32.859375 39.316406 L 32.859375 36.128906 L 32.472656 36.128906 L 32.46875 36.3125 "/>
<path style=" stroke:none;fill-rule:evenodd;fill:rgb(13.699341%,12.199402%,12.5%);fill-opacity:1;" d="M 59.554688 44.445313 L 60.085938 44.445313 L 60.085938 43.886719 L 59.550781 43.882813 L 59.554688 44.445313 "/>
</g>
</svg>
